<svg width="18" height="18" viewBox="0 0 18 18" fill="none" xmlns="http://www.w3.org/2000/svg">
<path d="M7.33704 2.62474C8.40279 2.12509 9.59714 2.12509 10.6629 2.62474L15.6813 4.97748C16.7729 5.48925 16.7729 7.26079 15.6813 7.77256L10.663 10.1253C9.59721 10.6249 8.40286 10.6249 7.33711 10.1253L2.3187 7.77252C1.2271 7.26075 1.2271 5.48921 2.3187 4.97744L7.33704 2.62474Z" stroke="white"/>
<path d="M1.5 6.375V10.5" stroke="white" stroke-linecap="round"/>
<path d="M14.25 8.625V12.4691C14.25 13.2251 13.8724 13.9329 13.211 14.2992C12.1097 14.9091 10.347 15.75 9 15.75C7.653 15.75 5.89028 14.9091 4.789 14.2992C4.12763 13.9329 3.75 13.2251 3.75 12.4691V8.625" stroke="white" stroke-linecap="round"/>
</svg>
