<svg width="35" height="35" viewBox="0 0 35 35" fill="none" xmlns="http://www.w3.org/2000/svg">
<path d="M22.7175 4.93212L25.6341 6.46271C28.772 8.10938 30.3409 8.93271 31.2121 10.4122C32.0833 11.8917 32.0833 13.7327 32.0833 17.4148V17.5854C32.0833 21.2674 32.0833 23.1085 31.2121 24.588C30.3409 26.0674 28.772 26.8908 25.6341 28.5374L22.7175 30.068C20.1572 31.4116 18.8771 32.0834 17.5 32.0834C16.1229 32.0834 14.8428 31.4116 12.2825 30.068L9.36583 28.5375C6.22799 26.8908 4.65906 26.0674 3.78786 24.588C2.91666 23.1085 2.91666 21.2674 2.91666 17.5854V17.4148C2.91666 13.7327 2.91666 11.8917 3.78786 10.4122C4.65906 8.93271 6.22799 8.10938 9.36583 6.46271L12.2825 4.93211C14.8428 3.58854 16.1229 2.91675 17.5 2.91675C18.8771 2.91675 20.1572 3.58854 22.7175 4.93212Z" stroke="#0D171C" stroke-width="2" stroke-linecap="round"/>
<path d="M30.625 10.9375L17.5 17.5M17.5 17.5L4.375 10.9375M17.5 17.5V31.3542" stroke="#0D171C" stroke-width="2" stroke-linecap="round"/>
</svg>
