<svg width="18" height="18" viewBox="0 0 18 18" fill="none" xmlns="http://www.w3.org/2000/svg">
<path d="M1.5 2.25L1.69868 2.31623C2.68871 2.64624 3.18373 2.81124 3.46686 3.20407C3.75 3.5969 3.75 4.1187 3.75 5.16228V7.125C3.75 9.24632 3.75 10.307 4.40901 10.966C5.06802 11.625 6.12868 11.625 8.25 11.625H14.25" stroke="#0D171C" stroke-linecap="round"/>
<path d="M5.625 13.5C6.24632 13.5 6.75 14.0037 6.75 14.625C6.75 15.2463 6.24632 15.75 5.625 15.75C5.00368 15.75 4.5 15.2463 4.5 14.625C4.5 14.0037 5.00368 13.5 5.625 13.5Z" stroke="#0D171C"/>
<path d="M12.375 13.5001C12.9963 13.5001 13.5 14.0037 13.5 14.6251C13.5 15.2464 12.9963 15.7501 12.375 15.7501C11.7537 15.7501 11.25 15.2464 11.25 14.6251C11.25 14.0037 11.7537 13.5001 12.375 13.5001Z" stroke="#0D171C"/>
<path d="M3.75 4.5H12.3378C13.879 4.5 14.6496 4.5 14.9831 5.0057C15.3165 5.5114 15.013 6.2197 14.4059 7.63632L14.0844 8.38632C13.801 9.0477 13.6593 9.37839 13.3775 9.5642C13.0957 9.75 12.7359 9.75 12.0164 9.75H3.75" stroke="#0D171C"/>
</svg>
