<svg width="18" height="18" viewBox="0 0 18 18" fill="none" xmlns="http://www.w3.org/2000/svg">
<path d="M2.25 7.81249C2.25 5.4143 2.25 4.21521 2.53314 3.81181C2.81627 3.4084 3.94374 3.02247 6.19868 2.25059L6.62829 2.10354C7.80374 1.70118 8.39146 1.5 9 1.5C9.60854 1.5 10.1963 1.70118 11.3717 2.10354L11.8013 2.25059C14.0563 3.02247 15.1837 3.4084 15.4669 3.81181C15.75 4.21521 15.75 5.4143 15.75 7.81249C15.75 8.17474 15.75 8.56756 15.75 8.99352C15.75 13.2221 12.5708 15.2741 10.5761 16.1455C10.035 16.3818 9.76444 16.5 9 16.5C8.23556 16.5 7.96501 16.3818 7.42392 16.1455C5.42922 15.2741 2.25 13.2221 2.25 8.99352C2.25 8.56756 2.25 8.17474 2.25 7.81249Z" stroke="#0D171C"/>
<path d="M8.14595 6.27251C8.52594 5.59084 8.71594 5.25 9 5.25C9.28406 5.25 9.47406 5.59084 9.85405 6.27251L9.95236 6.44887C10.0603 6.64258 10.1143 6.73944 10.1985 6.80334C10.2827 6.86725 10.3875 6.89097 10.5972 6.93841L10.7881 6.98161C11.526 7.14857 11.895 7.23205 11.9828 7.51432C12.0706 7.79659 11.819 8.09072 11.316 8.67898L11.1858 8.83117C11.0429 8.99833 10.9714 9.08191 10.9392 9.18531C10.9071 9.28872 10.9179 9.40023 10.9395 9.62327L10.9592 9.82632C11.0352 10.6112 11.0733 11.0036 10.8435 11.1781C10.6136 11.3525 10.2682 11.1935 9.5773 10.8754L9.39855 10.7931C9.20222 10.7027 9.10406 10.6575 9 10.6575C8.89594 10.6575 8.79778 10.7027 8.60145 10.7931L8.4227 10.8754C7.7318 11.1935 7.38635 11.3525 7.15654 11.1781C6.92674 11.0036 6.96476 10.6112 7.04082 9.82632L7.0605 9.62327C7.08211 9.40023 7.09291 9.28872 7.06076 9.18531C7.0286 9.08191 6.95713 8.99833 6.81418 8.83117L6.68403 8.67898C6.18097 8.09072 5.92945 7.79659 6.01723 7.51432C6.10501 7.23205 6.47396 7.14857 7.21186 6.98161L7.40277 6.93841C7.61246 6.89097 7.7173 6.86725 7.80148 6.80334C7.88567 6.73944 7.93966 6.64258 8.04764 6.44887L8.14595 6.27251Z" stroke="#0D171C"/>
</svg>
