<svg width="18" height="18" viewBox="0 0 18 18" fill="none" xmlns="http://www.w3.org/2000/svg">
<path d="M5.16475 13.5H12.3999C12.8626 13.5 13.094 13.5 13.3016 13.4708C14.1456 13.3521 14.8761 12.8817 15.2691 12.2038C15.3657 12.0371 15.4389 11.8409 15.5852 11.4487L16.4248 9.19825C16.7365 8.36278 16.0405 7.5 15.0548 7.5C14.4471 7.5 13.9044 7.83997 13.6973 8.35045L12.9467 10.2C12.8012 10.5585 12.7285 10.7378 12.5902 10.8626C12.5148 10.9308 12.4262 10.9863 12.3287 11.0264C12.1503 11.1 11.9369 11.1 11.51 11.1H6.27568C6.05578 11.1 5.94583 11.1 5.84787 11.0801C5.61913 11.0337 5.41992 10.9089 5.29308 10.7326C5.23877 10.6571 5.20129 10.5647 5.12633 10.38L4.30275 8.35045C4.09559 7.83997 3.5529 7.5 2.94517 7.5C1.95951 7.5 1.26352 8.36278 1.57521 9.19825L2.55246 11.8177C2.56716 11.8571 2.57451 11.8768 2.58148 11.8946C2.95402 12.8433 3.94888 13.4839 5.07398 13.4997C5.09505 13.5 5.11828 13.5 5.16475 13.5Z" stroke="#0D171C"/>
<path d="M4.5 9V6.42857C4.5 4.81233 4.5 4.00421 5.02721 3.5021C5.55442 3 6.40294 3 8.1 3H9.9C11.5971 3 12.4456 3 12.9728 3.5021C13.5 4.00421 13.5 4.81233 13.5 6.42857V9" stroke="#0D171C"/>
<path d="M13.5 15V13.5M4.5 15V14" stroke="#0D171C" stroke-linecap="round"/>
</svg>
