<svg width="30" height="30" viewBox="0 0 30 30" fill="none" xmlns="http://www.w3.org/2000/svg">
<path d="M3.75 27.5V15C3.75 12.643 3.75 11.4645 4.48223 10.7322C5.21447 10 6.39298 10 8.75 10C11.107 10 12.2855 10 13.0178 10.7322C13.75 11.4645 13.75 12.643 13.75 15" stroke="#0D171C" stroke-width="2"/>
<path d="M21.25 27.5V20C21.25 17.643 21.25 16.4645 20.5178 15.7322C19.7855 15 18.607 15 16.25 15H13.75C11.393 15 10.2145 15 9.48223 15.7322C8.75 16.4645 8.75 17.643 8.75 20V27.5" stroke="#0D171C" stroke-width="2"/>
<path d="M26.25 27.5V9.71503C26.25 8.03897 26.25 7.20094 25.8048 6.55854C25.3596 5.91613 24.575 5.62188 23.0056 5.03338C19.9366 3.88248 18.402 3.30703 17.326 4.05271C16.25 4.79839 16.25 6.43727 16.25 9.71503V15" stroke="#0D171C" stroke-width="2"/>
<path d="M5 10V8.125C5 6.94649 5 6.35723 5.36612 5.99112C5.73223 5.625 6.32149 5.625 7.5 5.625H10C11.1785 5.625 11.7678 5.625 12.1339 5.99112C12.5 6.35723 12.5 6.94649 12.5 8.125V10" stroke="#0D171C" stroke-width="2" stroke-linecap="round"/>
<path d="M8.75 5V2.5" stroke="#0D171C" stroke-width="2" stroke-linecap="round"/>
<path d="M27.5 27.5L2.5 27.5" stroke="#0D171C" stroke-width="2" stroke-linecap="round"/>
<path d="M12.5 18.75H17.5" stroke="#0D171C" stroke-width="2" stroke-linecap="round"/>
<path d="M12.5 22.5H17.5" stroke="#0D171C" stroke-width="2" stroke-linecap="round"/>
</svg>
