<svg width="30" height="31" viewBox="0 0 30 31" fill="none" xmlns="http://www.w3.org/2000/svg">
<path fill-rule="evenodd" clip-rule="evenodd" d="M10.6968 5.90972C11.0432 6.29457 11.012 6.88734 10.6272 7.23371L8.50657 9.14224C7.52173 10.0286 6.85773 10.6291 6.4276 11.1404C6.01479 11.6311 5.92462 11.9176 5.92462 12.1619C5.92462 12.4062 6.01479 12.6926 6.4276 13.1834C6.85773 13.6946 7.52173 14.2951 8.50657 15.1815L10.6272 17.09C11.012 17.4364 11.0432 18.0292 10.6968 18.414C10.3505 18.7989 9.7577 18.8301 9.37285 18.4837L7.20098 16.529C6.28056 15.7007 5.51706 15.0136 4.99279 14.3904C4.4415 13.7351 4.04962 13.031 4.04962 12.1619C4.04962 11.2927 4.4415 10.5887 4.99279 9.93336C5.51706 9.31015 6.28056 8.62304 7.20099 7.79471C7.21803 7.77938 7.23512 7.76399 7.25226 7.74856L9.37285 5.84004C9.7577 5.49367 10.3505 5.52487 10.6968 5.90972ZM17.7243 5.84384C18.2247 5.97684 18.5226 6.49031 18.3896 6.9907L13.406 25.7407C13.273 26.2411 12.7596 26.5389 12.2592 26.4059C11.7588 26.2729 11.461 25.7595 11.594 25.2591L16.5775 6.50907C16.7105 6.00868 17.2239 5.71084 17.7243 5.84384ZM19.3032 13.6227C19.6495 13.2379 20.2423 13.2067 20.6272 13.553L22.799 15.5077C23.7194 16.336 24.4829 17.0232 25.0072 17.6464C25.5585 18.3017 25.9504 19.0058 25.9504 19.8749C25.9504 20.744 25.5585 21.4481 25.0072 22.1034C24.483 22.7266 23.7195 23.4137 22.799 24.242L20.6272 26.1967C20.2423 26.5431 19.6495 26.5119 19.3032 26.127C18.9568 25.7422 18.988 25.1494 19.3728 24.803L21.4934 22.8945C22.4783 22.0082 23.1423 21.4077 23.5724 20.8964C23.9852 20.4056 24.0754 20.1192 24.0754 19.8749C24.0754 19.6306 23.9852 19.3441 23.5724 18.8534C23.1423 18.3421 22.4783 17.7416 21.4934 16.8553L19.3728 14.9467C18.988 14.6004 18.9568 14.0076 19.3032 13.6227Z" fill="#0D171C"/>
</svg>
