<svg width="18" height="18" viewBox="0 0 18 18" fill="none" xmlns="http://www.w3.org/2000/svg">
<path d="M5.68994 11.4319C5.76348 11.698 6.03886 11.8542 6.30503 11.7807C6.57121 11.7071 6.72737 11.4317 6.65383 11.1656L5.68994 11.4319ZM4.55769 5.45582L5.03964 5.32267L4.55769 5.45582ZM3.52777 4.43996L3.3941 4.92176L3.52777 4.43996ZM2.38367 3.60365C2.11758 3.52982 1.84203 3.68568 1.7682 3.95177C1.69437 4.21787 1.85023 4.49342 2.11633 4.56725L2.38367 3.60365ZM15.1258 11.7336C15.393 11.6641 15.5534 11.3912 15.4839 11.1239C15.4145 10.8566 15.1415 10.6963 14.8742 10.7657L15.1258 11.7336ZM7.70857 13.1525C7.95049 14.0281 7.41877 14.9485 6.48364 15.1915L6.73516 16.1594C8.18573 15.7824 9.0698 14.3244 8.67247 12.8862L7.70857 13.1525ZM6.48364 15.1915C5.54328 15.4359 4.59642 14.8908 4.35276 14.0088L3.38887 14.2751C3.78446 15.707 5.28981 16.535 6.73516 16.1594L6.48364 15.1915ZM4.35276 14.0088C4.11085 13.1331 4.64257 12.2128 5.5777 11.9697L5.32617 11.0019C3.8756 11.3789 2.99154 12.8369 3.38887 14.2751L4.35276 14.0088ZM5.5777 11.9697C6.51806 11.7254 7.46492 12.2705 7.70857 13.1525L8.67247 12.8862C8.27688 11.4543 6.77153 10.6263 5.32617 11.0019L5.5777 11.9697ZM6.65383 11.1656L5.03964 5.32267L4.07574 5.58896L5.68994 11.4319L6.65383 11.1656ZM3.66145 3.95816L2.38367 3.60365L2.11633 4.56725L3.3941 4.92176L3.66145 3.95816ZM5.03964 5.32267C4.85583 4.65734 4.32864 4.14328 3.66145 3.95816L3.3941 4.92176C3.73377 5.01601 3.9885 5.27318 4.07574 5.58896L5.03964 5.32267ZM8.31628 13.5033L15.1258 11.7336L14.8742 10.7657L8.06476 12.5354L8.31628 13.5033Z" fill="#0D171C"/>
<path d="M7.17406 6.54787C6.8103 5.23119 6.62842 4.57285 6.93716 4.05421C7.24589 3.53557 7.92466 3.35917 9.28222 3.00637L10.7221 2.63216C12.0797 2.27936 12.7584 2.10296 13.2932 2.4024C13.8279 2.70183 14.0098 3.36017 14.3736 4.67685L14.7594 6.0734C15.1231 7.39008 15.305 8.04842 14.9963 8.56706C14.6875 9.0857 14.0088 9.2621 12.6512 9.6149L11.2113 9.98911C9.85377 10.3419 9.17499 10.5183 8.64025 10.2189C8.10551 9.91943 7.92363 9.2611 7.55988 7.94442L7.17406 6.54787Z" stroke="#0D171C"/>
</svg>
