<svg width="35" height="35" viewBox="0 0 35 35" fill="none" xmlns="http://www.w3.org/2000/svg">
<path d="M14.5833 32.0833C21.0266 32.0833 26.25 26.86 26.25 20.4167C26.25 13.9733 21.0266 8.75 14.5833 8.75C8.13997 8.75 2.91663 13.9733 2.91663 20.4167C2.91663 22.2184 3.32507 23.9248 4.05442 25.4483C4.3051 25.9719 4.39311 26.5651 4.24306 27.1259L3.76466 28.9139C3.3876 30.3231 4.67686 31.6124 6.08609 31.2353L7.87406 30.7569C8.43486 30.6069 9.02808 30.6949 9.55169 30.9455C11.0751 31.6749 12.7815 32.0833 14.5833 32.0833Z" stroke="#0D171C" stroke-width="2"/>
<path d="M26.25 21.1486C26.3469 21.1082 26.443 21.0662 26.5383 21.0227C27.0664 20.7815 27.6588 20.6912 28.2196 20.8413L28.9138 21.027C30.3231 21.4041 31.6123 20.1149 31.2353 18.7056L31.0495 18.0114C30.8995 17.4506 30.9897 16.8581 31.2309 16.3301C31.7783 15.1317 32.0833 13.7994 32.0833 12.3959C32.0833 7.16072 27.8393 2.91675 22.6041 2.91675C18.6633 2.91675 15.2842 5.32152 13.8541 8.74367" stroke="#0D171C" stroke-width="2"/>
<path d="M9.5058 20.4167H9.51893M14.5964 20.4167H14.6096M19.6875 20.4167H19.7006" stroke="#0D171C" stroke-width="2" stroke-linecap="round" stroke-linejoin="round"/>
</svg>
