<svg width="101" height="53" viewBox="0 0 101 53" fill="none" xmlns="http://www.w3.org/2000/svg">
<path d="M1.11129 47.5034L1.11129 36.0445L3.61694 36.0445L3.61694 38.0575L3.66935 38.0575C3.92097 37.3935 4.33683 36.8693 4.91694 36.4849C5.50403 36.1005 6.175 35.9083 6.92984 35.9083C7.74059 35.9083 8.42204 36.1075 8.97419 36.5058C9.53333 36.8972 9.92124 37.4564 10.1379 38.1833L10.1903 38.1833C10.4699 37.4843 10.9277 36.9322 11.5637 36.5268C12.2067 36.1144 12.9406 35.9083 13.7653 35.9083C14.8906 35.9083 15.7957 36.2542 16.4806 36.9462C17.1656 37.6381 17.5081 38.5572 17.5081 39.7034L17.5081 47.5034L14.8976 47.5034L14.8976 40.3429C14.8976 39.63 14.7159 39.0814 14.3524 38.697C13.989 38.3056 13.4718 38.1099 12.8008 38.1099C12.1438 38.1099 11.6091 38.33 11.1968 38.7704C10.7844 39.2107 10.5782 39.7803 10.5782 40.4792L10.5782 47.5034L8.04113 47.5034L8.04113 40.1962C8.04113 39.5531 7.85591 39.0464 7.48548 38.676C7.11505 38.2986 6.61183 38.1099 5.97581 38.1099C5.31882 38.1099 4.77715 38.3405 4.35081 38.8018C3.93145 39.2561 3.72177 39.8362 3.72177 40.5421L3.72177 47.5034L1.11129 47.5034ZM23.1857 45.6268C23.9825 45.6268 24.6465 45.4031 25.1776 44.9558C25.7088 44.5085 25.9744 43.9389 25.9744 43.247L25.9744 42.3768L23.3535 42.5445C21.8997 42.6424 21.1728 43.1666 21.1728 44.1171C21.1728 44.5784 21.3545 44.9454 21.718 45.2179C22.0884 45.4905 22.5776 45.6268 23.1857 45.6268ZM22.4204 47.6292C21.2881 47.6292 20.3586 47.3147 19.6317 46.6857C18.9118 46.0566 18.5518 45.2354 18.5518 44.222C18.5518 43.2015 18.9293 42.4048 19.6841 41.8316C20.4459 41.2585 21.5502 40.9265 22.997 40.8357L25.9744 40.6575L25.9744 39.8187C25.9744 39.2177 25.7787 38.7564 25.3873 38.4349C25.0029 38.1064 24.4578 37.9421 23.7518 37.9421C23.1647 37.9421 22.672 38.0819 22.2736 38.3615C21.8752 38.6411 21.6306 39.015 21.5397 39.4833L19.1285 39.4833C19.1634 38.4349 19.6177 37.5752 20.4914 36.9042C21.372 36.2263 22.4868 35.8873 23.8357 35.8873C25.2685 35.8873 26.4112 36.2298 27.2639 36.9147C28.1236 37.5997 28.5535 38.5118 28.5535 39.651L28.5535 47.5034L26.0478 47.5034L26.0478 45.6583L25.9849 45.6583C25.6704 46.2663 25.1881 46.7486 24.5381 47.105C23.8951 47.4545 23.1892 47.6292 22.4204 47.6292ZM30.1005 47.5034L30.1005 36.0445L32.6061 36.0445L32.6061 38.0365L32.6585 38.0365C32.8402 37.3655 33.1722 36.8448 33.6545 36.4744C34.1437 36.104 34.7273 35.9187 35.4053 35.9187C35.7268 35.9187 35.9924 35.9537 36.2021 36.0236L36.2021 38.4034C35.9714 38.2986 35.6255 38.2462 35.1642 38.2462C34.4023 38.2462 33.8013 38.4803 33.3609 38.9486C32.9276 39.4099 32.7109 40.0459 32.7109 40.8566L32.7109 47.5034L30.1005 47.5034ZM39.7305 40.8566L44.1128 36.0445L47.1426 36.0445L42.5087 40.9825L47.3313 47.5034L44.312 47.5034L40.6216 42.5655L39.6991 43.4986L39.6991 47.5034L37.0886 47.5034L37.0886 31.6728L39.6991 31.6728L39.6991 40.8566L39.7305 40.8566ZM52.1703 37.9212C51.4084 37.9212 50.7724 38.1763 50.2622 38.6865C49.752 39.1897 49.4689 39.8502 49.413 40.6679L54.8436 40.6679C54.8157 39.8432 54.5571 39.1792 54.0678 38.676C53.5786 38.1728 52.9461 37.9212 52.1703 37.9212ZM54.8541 44.0962L57.3074 44.0962C57.1396 45.1585 56.591 46.0217 55.6614 46.6857C54.7318 47.3427 53.5996 47.6712 52.2646 47.6712C50.5732 47.6712 49.2348 47.147 48.2493 46.0986C47.2708 45.0502 46.7815 43.6244 46.7815 41.8212C46.7815 40.0179 47.2673 38.5781 48.2388 37.5018C49.2173 36.4255 50.5278 35.8873 52.1703 35.8873C53.7778 35.8873 55.0533 36.3975 55.9969 37.4179C56.9404 38.4384 57.4122 39.8152 57.4122 41.5486L57.4122 42.4083L49.392 42.4083L49.392 42.5655C49.392 43.4881 49.6611 44.2325 50.1993 44.7986C50.7375 45.3577 51.4434 45.6373 52.317 45.6373C52.9461 45.6373 53.4877 45.501 53.942 45.2284C54.3963 44.9488 54.7004 44.5714 54.8541 44.0962ZM59.2632 33.4865L61.8737 33.4865L61.8737 36.0445L64.0439 36.0445L64.0439 38.0679L61.8737 38.0679L61.8737 44.1066C61.8737 45.0362 62.335 45.501 63.2576 45.501C63.4952 45.501 63.7538 45.4835 64.0334 45.4486L64.0334 47.451C63.7189 47.5209 63.2611 47.5558 62.66 47.5558C61.4439 47.5558 60.5737 47.3182 60.0495 46.8429C59.5253 46.3607 59.2632 45.5674 59.2632 44.4631L59.2632 38.0679L57.7011 38.0679L57.7011 36.0445L59.2632 36.0445L59.2632 33.4865Z" fill="#D7D7D7"/>
<path d="M35.2048 15.4436C34.443 15.4436 33.807 15.6987 33.2968 16.2089C32.7866 16.7122 32.5035 17.3727 32.4476 18.1904L37.8782 18.1904C37.8503 17.3657 37.5917 16.7017 37.1024 16.1985C36.6132 15.6952 35.9806 15.4436 35.2048 15.4436ZM37.8887 21.6186L40.3419 21.6186C40.1742 22.681 39.6255 23.5442 38.696 24.2081C37.7664 24.8651 36.6341 25.1936 35.2992 25.1936C33.6078 25.1936 32.2693 24.6694 31.2839 23.621C30.3054 22.5727 29.8161 21.1468 29.8161 19.3436C29.8161 17.5404 30.3019 16.1006 31.2734 15.0243C32.2519 13.9479 33.5624 13.4097 35.2048 13.4097C36.8124 13.4097 38.0879 13.92 39.0314 14.9404C39.975 15.9608 40.4468 17.3377 40.4468 19.071L40.4468 19.9307L32.4266 19.9307L32.4266 20.088C32.4266 21.0106 32.6957 21.7549 33.2339 22.321C33.772 22.8802 34.4779 23.1597 35.3516 23.1597C35.9806 23.1597 36.5223 23.0235 36.9766 22.7509C37.4309 22.4713 37.7349 22.0939 37.8887 21.6186ZM46.5857 22.8767C47.4594 22.8767 48.1583 22.5517 48.6825 21.9017C49.2067 21.2447 49.4688 20.3675 49.4688 19.2702C49.4688 18.1659 49.2032 17.2818 48.672 16.6178C48.1478 15.9468 47.4524 15.6114 46.5857 15.6114C45.726 15.6114 45.0376 15.9434 44.5204 16.6073C44.0102 17.2643 43.7551 18.152 43.7551 19.2702C43.7551 20.3745 44.0102 21.2517 44.5204 21.9017C45.0376 22.5517 45.726 22.8767 46.5857 22.8767ZM46.5857 29.1775C45.1529 29.1775 43.9717 28.877 43.0422 28.2759C42.1126 27.6818 41.5989 26.885 41.501 25.8856L44.1115 25.8856C44.2233 26.2979 44.5099 26.6229 44.9712 26.8606C45.4395 27.1052 46.0056 27.2275 46.6696 27.2275C47.5223 27.2275 48.2002 27.0213 48.7034 26.6089C49.2137 26.2036 49.4688 25.6479 49.4688 24.942L49.4688 22.992L49.4059 22.992C49.0983 23.6071 48.6266 24.0928 47.9905 24.4493C47.3545 24.8057 46.6276 24.9839 45.8099 24.9839C44.3841 24.9839 43.2379 24.4667 42.3712 23.4323C41.5115 22.3909 41.0817 21.0001 41.0817 19.2597C41.0817 17.4845 41.5115 16.0727 42.3712 15.0243C43.2379 13.9689 44.4016 13.4412 45.8623 13.4412C46.6731 13.4412 47.393 13.6229 48.022 13.9864C48.651 14.3498 49.1333 14.853 49.4688 15.496L49.5212 15.496L49.5212 13.567L52.0792 13.567L52.0792 24.7428C52.0792 26.1057 51.583 27.1856 50.5905 27.9823C49.6051 28.7791 48.2701 29.1775 46.5857 29.1775ZM58.7004 25.1936C57.009 25.1936 55.6671 24.6659 54.6746 23.6106C53.6822 22.5552 53.1859 21.1154 53.1859 19.2912C53.1859 17.488 53.6822 16.0587 54.6746 15.0033C55.6741 13.9409 57.016 13.4097 58.7004 13.4097C60.3918 13.4098 61.7338 13.9374 62.7262 14.9928C63.7257 16.0482 64.2254 17.481 64.2254 19.2912C64.2254 21.1154 63.7292 22.5552 62.7367 23.6106C61.7443 24.6659 60.3988 25.1936 58.7004 25.1936ZM58.7004 23.1073C59.6021 23.1073 60.3045 22.7753 60.8077 22.1114C61.3179 21.4404 61.573 20.5038 61.573 19.3017C61.573 18.1065 61.3179 17.1735 60.8077 16.5025C60.3045 15.8315 59.6021 15.496 58.7004 15.496C57.8058 15.496 57.1034 15.8315 56.5932 16.5025C56.09 17.1735 55.8383 18.1065 55.8383 19.3017C55.8383 20.4968 56.09 21.4299 56.5932 22.1009C57.1034 22.7718 57.8058 23.1073 58.7004 23.1073Z" fill="currentColor"/>
<path d="M76.0605 16.8799C76.0605 15.8385 76.4833 14.9998 77.329 14.3638C78.1747 13.7278 79.286 13.4097 80.6629 13.4097C81.9839 13.4097 83.0637 13.7347 83.9024 14.3847C84.7411 15.0278 85.1745 15.87 85.2024 16.9114L82.7702 16.9114C82.7282 16.4291 82.5115 16.0482 82.1202 15.7686C81.7357 15.4821 81.2325 15.3388 80.6105 15.3388C80.0024 15.3388 79.5132 15.4681 79.1427 15.7267C78.7793 15.9783 78.5976 16.3138 78.5976 16.7331C78.5976 17.3692 79.1532 17.8165 80.2645 18.0751L82.2774 18.5364C83.4306 18.802 84.2484 19.1724 84.7306 19.6477C85.2199 20.1229 85.4645 20.7834 85.4645 21.6291C85.4645 22.6915 85.0137 23.5511 84.1121 24.2081C83.2105 24.8651 82.0398 25.1936 80.6 25.1936C79.2021 25.1936 78.0664 24.8721 77.1927 24.2291C76.3261 23.5791 75.8508 22.7194 75.7669 21.6501L78.3355 21.6501C78.4124 22.1673 78.6535 22.5657 79.0589 22.8452C79.4712 23.1248 80.0199 23.2646 80.7048 23.2646C81.3688 23.2646 81.893 23.1423 82.2774 22.8977C82.6688 22.646 82.8645 22.3071 82.8645 21.8807C82.8645 21.5452 82.7457 21.2796 82.5081 21.0839C82.2774 20.8813 81.8755 20.7135 81.3024 20.5807L79.2266 20.0775C77.1158 19.5813 76.0605 18.5154 76.0605 16.8799ZM87.2946 11.0089L89.9051 11.0089L89.9051 13.567L92.0752 13.567L92.0752 15.5904L89.9051 15.5904L89.9051 21.6291C89.9051 22.5587 90.3663 23.0235 91.2889 23.0235C91.5266 23.0235 91.7852 23.006 92.0647 22.971L92.0647 24.9735C91.7502 25.0434 91.2924 25.0783 90.6913 25.0783C89.4752 25.0783 88.6051 24.8407 88.0809 24.3654C87.5567 23.8831 87.2946 23.0899 87.2946 21.9856L87.2946 15.5904L85.7325 15.5904L85.7325 13.567L87.2946 13.567L87.2946 11.0089Z" fill="#D7D7D7"/>
<path d="M76.2597 47.5034L76.2597 36.0445L78.7653 36.0445L78.7653 38.0365L78.8177 38.0365C79.5097 36.6177 80.7433 35.9083 82.5185 35.9083C83.7906 35.9083 84.79 36.2857 85.5169 37.0405C86.2438 37.7954 86.6072 38.8368 86.6072 40.1647L86.6072 47.5034L83.9968 47.5034L83.9968 40.6784C83.9968 39.8607 83.7836 39.2316 83.3572 38.7913C82.9309 38.344 82.3263 38.1204 81.5435 38.1204C80.7398 38.1204 80.0933 38.379 79.604 38.8962C79.1148 39.4134 78.8702 40.0913 78.8702 40.93L78.8702 47.5034L76.2597 47.5034ZM93.1551 45.3542C94.0287 45.3542 94.7276 45.0292 95.2518 44.3792C95.776 43.7222 96.0381 42.8451 96.0381 41.7478C96.0381 40.6435 95.7725 39.7593 95.2413 39.0954C94.7172 38.4244 94.0217 38.0889 93.1551 38.0889C92.2954 38.0889 91.6069 38.4209 91.0897 39.0849C90.5795 39.7419 90.3244 40.6295 90.3244 41.7478C90.3244 42.8521 90.5795 43.7292 91.0897 44.3792C91.6069 45.0292 92.2954 45.3542 93.1551 45.3542ZM93.1551 51.655C91.7223 51.655 90.5411 51.3545 89.6115 50.7534C88.6819 50.1593 88.1682 49.3626 88.0704 48.3631L90.6809 48.3631C90.7927 48.7755 91.0792 49.1005 91.5405 49.3381C92.0088 49.5827 92.5749 49.705 93.2389 49.705C94.0916 49.705 94.7696 49.4988 95.2728 49.0865C95.783 48.6811 96.0381 48.1255 96.0381 47.4195L96.0381 45.4695L95.9752 45.4695C95.6677 46.0846 95.1959 46.5704 94.5599 46.9268C93.9239 47.2833 93.197 47.4615 92.3792 47.4615C90.9534 47.4615 89.8072 46.9443 88.9405 45.9099C88.0809 44.8685 87.651 43.4776 87.651 41.7373C87.651 39.962 88.0809 38.5502 88.9405 37.5018C89.8072 36.4464 90.9709 35.9187 92.4317 35.9187C93.2424 35.9187 93.9623 36.1005 94.5913 36.4639C95.2204 36.8273 95.7026 37.3306 96.0381 37.9736L96.0905 37.9736L96.0905 36.0445L98.6486 36.0445L98.6486 47.2204C98.6486 48.5833 98.1524 49.6631 97.1599 50.4599C96.1744 51.2566 94.8395 51.655 93.1551 51.655Z" fill="currentColor"/>
<path fill-rule="evenodd" clip-rule="evenodd" d="M66.2341 12.8803L66.2341 46.9677H73.6926L73.6926 33.8872C73.7604 33.8622 73.8243 33.8235 73.8843 33.771C73.9988 33.6708 74.0561 33.542 74.0561 33.3846C74.0561 33.2271 73.9988 33.0983 73.8843 32.9981C73.8291 32.935 73.7652 32.8893 73.6926 32.8609L73.6926 12.8803H66.2341ZM73.6926 32.8609C73.6335 32.8378 73.5685 32.8263 73.4978 32.8263C73.3404 32.8263 73.2044 32.8836 73.0899 32.9981C72.9897 33.0983 72.9396 33.2271 72.9396 33.3846C72.9396 33.542 72.9897 33.6708 73.0899 33.771C73.2044 33.8712 73.3404 33.9213 73.4978 33.9213C73.566 33.9213 73.6309 33.91 73.6926 33.8872V32.8609ZM66.9829 7.29778C67.8017 8.12943 68.7902 8.54526 69.9484 8.54526C71.1266 8.54526 72.115 8.13983 72.9138 7.32896C73.7325 6.49731 74.1419 5.47853 74.1419 4.27263C74.1419 3.06673 73.7325 2.05835 72.9138 1.24748C72.115 0.415828 71.1266 0 69.9484 0C68.7902 0 67.8017 0.415828 66.9829 1.24748C66.1642 2.05835 65.7548 3.06673 65.7548 4.27263C65.7548 5.45774 66.1642 6.46612 66.9829 7.29778ZM71.136 45.0648C71.8517 44.5781 72.4816 44.0342 73.0255 43.433L72.9611 43.3686C72.7177 43.6262 72.4386 43.8839 72.1237 44.1415C71.8088 44.3992 71.4724 44.6497 71.1146 44.893C70.7567 45.1363 70.3917 45.3797 70.0195 45.623C69.6474 45.852 69.2967 46.0596 68.9675 46.2457C68.853 46.3172 68.6812 46.3816 68.4522 46.4389C68.2375 46.4962 68.0371 46.5248 67.851 46.5248C67.7078 46.5248 67.6148 46.5105 67.5719 46.4818C67.3428 46.3244 67.2283 46.1025 67.2283 45.8162C67.2283 45.6302 67.2641 45.4656 67.3357 45.3224C67.7078 44.5924 68.0943 43.8624 68.4951 43.1324C68.9102 42.4024 69.3182 41.6867 69.719 40.9853C70.1341 40.2696 70.5349 39.5825 70.9213 38.9241C71.3221 38.2513 71.6871 37.6215 72.0163 37.0346H70.8354C70.6207 37.4497 70.406 37.829 70.1913 38.1726C69.9909 38.5018 69.7547 38.8811 69.4828 39.3105C69.2251 39.7256 68.9174 40.2338 68.5595 40.835C68.2017 41.4362 67.7651 42.202 67.2498 43.1324C66.8204 43.934 66.6057 44.6568 66.6057 45.3009C66.6057 45.5157 66.6271 45.716 66.6701 45.9021C66.7273 46.0739 66.7917 46.217 66.8633 46.3315C66.9206 46.4604 67.0208 46.5534 67.1639 46.6107C67.307 46.6536 67.4788 46.6751 67.6792 46.6751C67.9082 46.6751 68.1444 46.6465 68.3878 46.5892C68.6311 46.5319 68.853 46.4461 69.0534 46.3315C69.7261 45.9737 70.4203 45.5514 71.136 45.0648Z" fill="currentColor"/>
</svg>
