<svg width="30" height="30" viewBox="0 0 30 30" fill="none" xmlns="http://www.w3.org/2000/svg">
<path d="M23.3247 10.3576L23.785 9.89734C24.213 9.46928 24.4271 9.25525 24.5556 9.0326C24.9044 8.42839 24.9044 7.68397 24.5556 7.07976C24.4271 6.85711 24.213 6.64308 23.785 6.21502C23.3569 5.78697 23.1429 5.57294 22.9202 5.44439C22.316 5.09555 21.5716 5.09555 20.9674 5.44439C20.7447 5.57294 20.5307 5.78697 20.1027 6.21502L19.6424 6.67531M14.1189 19.5634L7.21457 26.4677C6.78652 26.8958 6.57249 27.1098 6.34984 27.2384C5.74563 27.5872 5.00121 27.5872 4.397 27.2384C4.17435 27.1098 3.96032 26.8958 3.53226 26.4677C3.10421 26.0397 2.89018 25.8257 2.76163 25.603C2.41279 24.9988 2.41279 24.2544 2.76163 23.6502C2.89018 23.4275 3.10421 23.2135 3.53226 22.7854L10.4366 15.8811M9.51602 14.9605L15.0395 20.484C17.2093 22.6538 18.2942 23.7387 19.6424 23.7387C20.9905 23.7387 22.0754 22.6538 24.2453 20.484C26.4151 18.3142 27.5 17.2292 27.5 15.8811C27.5 14.5329 26.4151 13.448 24.2453 11.2782L18.7218 5.75473C16.552 3.58491 15.4671 2.5 14.1189 2.5C12.7708 2.5 11.6858 3.58491 9.51602 5.75473C7.34619 7.92456 6.26128 9.00947 6.26128 10.3576C6.26128 11.7058 7.34619 12.7907 9.51602 14.9605Z" stroke="white" stroke-width="2"/>
</svg>
