<svg width="30" height="30" viewBox="0 0 30 30" fill="none" xmlns="http://www.w3.org/2000/svg">
<path fill-rule="evenodd" clip-rule="evenodd" d="M6.34848 6.33614C11.0926 1.59867 18.8047 1.64904 23.5779 6.42222C28.3531 11.1975 28.4015 18.9141 23.6578 23.6577C18.9142 28.4014 11.1975 28.353 6.42229 23.5778C3.59248 20.748 2.42392 16.8874 2.92571 13.2265C2.99602 12.7136 3.46887 12.3547 3.98184 12.425C4.49481 12.4953 4.85365 12.9682 4.78334 13.4812C4.35837 16.5815 5.3474 19.8513 7.74812 22.252C11.8037 26.3076 18.3331 26.3308 22.332 22.3319C26.3309 18.333 26.3076 11.8036 22.252 7.74804C18.1985 3.69452 11.6737 3.66924 7.67431 7.66196L8.60893 7.66666C9.12669 7.66926 9.54431 8.0911 9.54171 8.60886C9.53911 9.12662 9.11727 9.54424 8.59951 9.54164L5.41757 9.52565C4.90349 9.52306 4.48738 9.10695 4.4848 8.59287L4.4688 5.41093C4.4662 4.89317 4.88382 4.47133 5.40158 4.46873C5.91934 4.46613 6.34118 4.88375 6.34378 5.40151L6.34848 6.33614ZM15 9.0624C15.5177 9.0624 15.9375 9.48213 15.9375 9.9999V14.6116L18.7879 17.462C19.154 17.8281 19.154 18.4217 18.7879 18.7878C18.4218 19.1539 17.8282 19.1539 17.4621 18.7878L14.0625 15.3882V9.9999C14.0625 9.48213 14.4822 9.0624 15 9.0624Z" fill="#0D171C"/>
</svg>
