<svg width="35" height="35" viewBox="0 0 35 35" fill="none" xmlns="http://www.w3.org/2000/svg">
<path d="M21.1458 28.4376H13.8542M21.1458 28.4376C21.1458 27.397 21.1458 26.8767 21.2014 26.5315C21.3805 25.4182 21.4118 25.3481 22.1217 24.472C22.3419 24.2003 23.1591 23.4685 24.7935 22.0051C27.0301 20.0024 28.4375 17.0927 28.4375 13.8542C28.4375 7.81363 23.5406 2.91675 17.5 2.91675C11.4594 2.91675 6.5625 7.81363 6.5625 13.8542C6.5625 17.0927 7.96994 20.0024 10.2065 22.0051C11.8409 23.4685 12.6581 24.2003 12.8783 24.472C13.5882 25.3481 13.6195 25.4182 13.7986 26.5315C13.8542 26.8767 13.8542 27.397 13.8542 28.4376M21.1458 28.4376C21.1458 29.8006 21.1458 30.4821 20.8528 30.9897C20.6608 31.3222 20.3846 31.5983 20.0521 31.7903C19.5445 32.0834 18.863 32.0834 17.5 32.0834C16.137 32.0834 15.4555 32.0834 14.9479 31.7903C14.6154 31.5983 14.3392 31.3222 14.1472 30.9897C13.8542 30.4821 13.8542 29.8006 13.8542 28.4376" stroke="#0D171C" stroke-width="2"/>
<path d="M18.6456 12.3958L15.5206 16.7708H19.8956L16.7706 21.1458" stroke="#0D171C" stroke-width="2" stroke-linecap="round" stroke-linejoin="round"/>
</svg>
