<svg width="35" height="35" viewBox="0 0 35 35" fill="none" xmlns="http://www.w3.org/2000/svg">
<path d="M24.7916 11.6667V8.75008C24.7916 6.00022 24.7916 4.62529 23.9374 3.77102C23.0831 2.91675 21.7082 2.91675 18.9583 2.91675H16.0416C13.2918 2.91675 11.9169 2.91675 11.0626 3.77102C10.2083 4.62529 10.2083 6.00022 10.2083 8.75008V11.6667" stroke="#0D171C" stroke-width="2"/>
<path d="M15.4056 8.43382C16.7111 7.72193 18.2889 7.72193 19.5945 8.43382L26.586 12.2462C27.9918 13.0127 28.8666 14.486 28.8666 16.0872V23.288C28.8666 24.8892 27.9918 26.3625 26.586 27.129L19.5945 30.9414C18.2889 31.6533 16.7111 31.6533 15.4056 30.9414L8.41397 27.129C7.00816 26.3625 6.13342 24.8892 6.13342 23.288V16.0872C6.13342 14.486 7.00816 13.0127 8.41398 12.2462L15.4056 8.43382Z" stroke="#0D171C" stroke-width="2"/>
<path d="M16.2545 16.8039C16.8087 15.8098 17.0857 15.3127 17.5 15.3127C17.9143 15.3127 18.1913 15.8098 18.7455 16.8039L18.8889 17.0611C19.0463 17.3436 19.1251 17.4848 19.2478 17.578C19.3706 17.6712 19.5235 17.7058 19.8293 17.775L20.1077 17.838C21.1838 18.0815 21.7219 18.2032 21.8499 18.6149C21.9779 19.0265 21.6111 19.4555 20.8775 20.3133L20.6877 20.5353C20.4792 20.7791 20.375 20.9009 20.3281 21.0517C20.2812 21.2025 20.2969 21.3652 20.3284 21.6904L20.3571 21.9865C20.4681 23.1311 20.5235 23.7034 20.1884 23.9578C19.8532 24.2123 19.3495 23.9803 18.3419 23.5164L18.0812 23.3964C17.7949 23.2645 17.6517 23.1986 17.5 23.1986C17.3483 23.1986 17.2051 23.2645 16.9188 23.3964L16.6581 23.5164C15.6505 23.9803 15.1468 24.2123 14.8116 23.9578C14.4765 23.7034 14.5319 23.1311 14.6429 21.9865L14.6716 21.6904C14.7031 21.3652 14.7188 21.2025 14.6719 21.0517C14.625 20.9009 14.5208 20.7791 14.3123 20.5353L14.1225 20.3133C13.3889 19.4555 13.0221 19.0265 13.1501 18.6149C13.2781 18.2032 13.8162 18.0815 14.8923 17.838L15.1707 17.775C15.4765 17.7058 15.6294 17.6712 15.7522 17.578C15.8749 17.4848 15.9537 17.3436 16.1111 17.0611L16.2545 16.8039Z" stroke="#0D171C" stroke-width="2"/>
</svg>
