<svg width="30" height="31" viewBox="0 0 30 31" fill="none" xmlns="http://www.w3.org/2000/svg">
<path fill-rule="evenodd" clip-rule="evenodd" d="M15 3.9375C14.1371 3.9375 13.4375 4.63705 13.4375 5.5C13.4375 6.36295 14.1371 7.0625 15 7.0625C15.8629 7.0625 16.5625 6.36295 16.5625 5.5C16.5625 4.63705 15.8629 3.9375 15 3.9375ZM11.5625 5.5C11.5625 3.60152 13.1015 2.0625 15 2.0625C16.8985 2.0625 18.4375 3.60152 18.4375 5.5C18.4375 7.39848 16.8985 8.9375 15 8.9375C13.1015 8.9375 11.5625 7.39848 11.5625 5.5ZM21.2368 9.45477C23.0128 9.0742 24.6875 10.4281 24.6875 12.2444C24.6875 13.4724 23.9017 14.5626 22.7367 14.951L20.0176 15.8573C19.8462 15.9145 19.7437 15.9488 19.6677 15.9776C19.6196 15.9958 19.5994 16.0055 19.5945 16.0079C19.4918 16.0727 19.436 16.1911 19.4512 16.3114C19.4525 16.3168 19.4578 16.3386 19.4744 16.3873C19.5005 16.4642 19.5391 16.5652 19.604 16.7338L21.1625 20.7859C21.8626 22.6061 20.5189 24.5625 18.5687 24.5625C17.5714 24.5625 16.6506 24.0281 16.1558 23.1623L15 21.1396L13.8442 23.1623C13.3494 24.0281 12.4286 24.5625 11.4313 24.5625C9.48105 24.5625 8.13742 22.6061 8.83753 20.7859L10.396 16.7338C10.4609 16.5652 10.4995 16.4642 10.5256 16.3873C10.5422 16.3386 10.5475 16.3168 10.5488 16.3114C10.564 16.1911 10.5082 16.0727 10.4055 16.0079C10.4006 16.0055 10.3804 15.9958 10.3323 15.9776C10.2563 15.9488 10.1538 15.9145 9.9824 15.8573L7.26328 14.951C6.09829 14.5626 5.3125 13.4724 5.3125 12.2444C5.3125 10.4281 6.98724 9.0742 8.76325 9.45477L11.1352 9.96305C11.2683 9.99158 11.3305 10.0049 11.3919 10.0176C13.7721 10.5099 16.2279 10.5099 18.6081 10.0176C18.6695 10.0049 18.7317 9.99158 18.8648 9.96305L21.2368 9.45477ZM22.8125 12.2444C22.8125 11.6218 22.2384 11.1577 21.6296 11.2881L19.2542 11.7972C19.1258 11.8247 19.0567 11.8395 18.9879 11.8537C16.3571 12.3979 13.6429 12.3979 11.0121 11.8537C10.9434 11.8395 10.8743 11.8247 10.7461 11.7972L8.37038 11.2882C7.76158 11.1577 7.1875 11.6218 7.1875 12.2444C7.1875 12.6654 7.45686 13.0391 7.85621 13.1722L10.5753 14.0786C10.598 14.0861 10.6208 14.0937 10.6436 14.1012C10.9006 14.1864 11.1676 14.2749 11.3878 14.4108C12.1241 14.8653 12.5233 15.7112 12.4061 16.5686C12.371 16.8249 12.2696 17.0872 12.172 17.3397C12.1633 17.3622 12.1546 17.3846 12.146 17.4069L10.5876 21.4589C10.3598 22.0511 10.7969 22.6875 11.4313 22.6875C11.7557 22.6875 12.0553 22.5137 12.2162 22.232L14.186 18.7849C14.3529 18.4928 14.6636 18.3125 15 18.3125C15.3364 18.3125 15.6471 18.4928 15.814 18.7849L17.7838 22.232C17.9447 22.5137 18.2443 22.6875 18.5687 22.6875C19.2031 22.6875 19.6402 22.0511 19.4124 21.4589L17.854 17.4069C17.8454 17.3846 17.8367 17.3622 17.828 17.3397C17.7304 17.0872 17.629 16.8249 17.5939 16.5686C17.4767 15.7112 17.8759 14.8653 18.6122 14.4108C18.8324 14.2749 19.0994 14.1864 19.3564 14.1012C19.3792 14.0937 19.402 14.0861 19.4247 14.0786L22.1438 13.1722C22.5431 13.0391 22.8125 12.6654 22.8125 12.2444ZM6.52048 18.2039C6.75306 18.6665 6.5666 19.23 6.10401 19.4626C4.20287 20.4184 3.4375 21.4937 3.4375 22.375C3.4375 23.3296 4.34251 24.506 6.54588 25.4975C8.66125 26.4495 11.6494 27.0625 15 27.0625C18.3506 27.0625 21.3387 26.4495 23.4541 25.4975C25.6575 24.506 26.5625 23.3296 26.5625 22.375C26.5625 21.4937 25.7971 20.4185 23.896 19.4626C23.4334 19.23 23.2469 18.6665 23.4795 18.2039C23.7121 17.7413 24.2756 17.5548 24.7382 17.7874C26.7957 18.8219 28.4375 20.375 28.4375 22.375C28.4375 24.527 26.5443 26.1631 24.2236 27.2074C21.8148 28.2913 18.553 28.9375 15 28.9375C11.447 28.9375 8.18519 28.2913 5.77645 27.2074C3.45571 26.1631 1.5625 24.527 1.5625 22.375C1.5625 20.375 3.20425 18.8219 5.26177 17.7874C5.72435 17.5548 6.2879 17.7413 6.52048 18.2039Z" fill="#0D171C"/>
</svg>
