<svg width="35" height="35" viewBox="0 0 35 35" fill="none" xmlns="http://www.w3.org/2000/svg">
<path d="M13.125 17.5001C13.125 19.5136 11.4927 21.1459 9.47915 21.1459C7.46561 21.1459 5.83331 19.5136 5.83331 17.5001C5.83331 15.4865 7.46561 13.8542 9.47915 13.8542C11.4927 13.8542 13.125 15.4865 13.125 17.5001Z" stroke="#0D171C" stroke-width="2"/>
<path d="M20.4167 9.47925L13.125 14.5834" stroke="#0D171C" stroke-width="2" stroke-linecap="round"/>
<path d="M20.4167 25.5208L13.125 20.4166" stroke="#0D171C" stroke-width="2" stroke-linecap="round"/>
<path d="M27.7084 26.9791C27.7084 28.9926 26.0761 30.6249 24.0625 30.6249C22.049 30.6249 20.4167 28.9926 20.4167 26.9791C20.4167 24.9655 22.049 23.3333 24.0625 23.3333C26.0761 23.3333 27.7084 24.9655 27.7084 26.9791Z" stroke="#0D171C" stroke-width="2"/>
<path d="M27.7084 8.02083C27.7084 10.0344 26.0761 11.6667 24.0625 11.6667C22.049 11.6667 20.4167 10.0344 20.4167 8.02083C20.4167 6.0073 22.049 4.375 24.0625 4.375C26.0761 4.375 27.7084 6.0073 27.7084 8.02083Z" stroke="#0D171C" stroke-width="2"/>
</svg>
