<svg width="35" height="35" viewBox="0 0 35 35" fill="none" xmlns="http://www.w3.org/2000/svg">
<path fill-rule="evenodd" clip-rule="evenodd" d="M17.5 4.0105C14.8824 4.0105 12.7604 6.13248 12.7604 8.75008C12.7604 11.3677 14.8824 13.4897 17.5 13.4897C20.1176 13.4897 22.2395 11.3677 22.2395 8.75008C22.2395 6.13248 20.1176 4.0105 17.5 4.0105ZM10.5729 8.75008C10.5729 4.92436 13.6742 1.823 17.5 1.823C21.3257 1.823 24.427 4.92436 24.427 8.75008C24.427 12.5758 21.3257 15.6772 17.5 15.6772C13.6742 15.6772 10.5729 12.5758 10.5729 8.75008Z" fill="#0D171C"/>
<path fill-rule="evenodd" clip-rule="evenodd" d="M25.1562 5.83325C25.1562 5.22919 25.6459 4.7395 26.25 4.7395C29.0751 4.7395 31.7188 6.68323 31.7188 9.47909C31.7188 12.2749 29.0751 14.2187 26.25 14.2187C25.6459 14.2187 25.1562 13.729 25.1562 13.1249C25.1562 12.5209 25.6459 12.0312 26.25 12.0312C28.2574 12.0312 29.5312 10.7103 29.5312 9.47909C29.5312 8.24786 28.2574 6.927 26.25 6.927C25.6459 6.927 25.1562 6.43731 25.1562 5.83325Z" fill="#0D171C"/>
<path fill-rule="evenodd" clip-rule="evenodd" d="M9.84375 5.83325C9.84375 5.22919 9.35406 4.7395 8.75 4.7395C5.92488 4.7395 3.28125 6.68323 3.28125 9.47909C3.28125 12.2749 5.92488 14.2187 8.75 14.2187C9.35406 14.2187 9.84375 13.729 9.84375 13.1249C9.84375 12.5209 9.35406 12.0312 8.75 12.0312C6.74262 12.0312 5.46875 10.7103 5.46875 9.47909C5.46875 8.24786 6.74262 6.927 8.75 6.927C9.35406 6.927 9.84375 6.43731 9.84375 5.83325Z" fill="#0D171C"/>
<path fill-rule="evenodd" clip-rule="evenodd" d="M11.9195 21.5769C10.5316 22.5021 9.84375 23.6602 9.84375 24.7916C9.84375 25.9229 10.5316 27.0811 11.9195 28.0063C13.2998 28.9265 15.2696 29.5312 17.5 29.5312C19.7304 29.5312 21.7002 28.9265 23.0805 28.0063C24.4684 27.0811 25.1562 25.9229 25.1562 24.7916C25.1562 23.6602 24.4684 22.5021 23.0805 21.5769C21.7002 20.6567 19.7304 20.052 17.5 20.052C15.2696 20.052 13.2998 20.6567 11.9195 21.5769ZM10.7061 19.7567C12.4927 18.5657 14.8979 17.8645 17.5 17.8645C20.1021 17.8645 22.5073 18.5657 24.2939 19.7567C26.0729 20.9427 27.3438 22.7013 27.3438 24.7916C27.3438 26.8819 26.0729 28.6404 24.2939 29.8264C22.5073 31.0175 20.1021 31.7187 17.5 31.7187C14.8979 31.7187 12.4927 31.0175 10.7061 29.8264C8.92713 28.6404 7.65625 26.8819 7.65625 24.7916C7.65625 22.7013 8.92713 20.9427 10.7061 19.7567Z" fill="#0D171C"/>
<path fill-rule="evenodd" clip-rule="evenodd" d="M28.0983 20.1824C28.2276 19.5924 28.8109 19.219 29.4009 19.3484C30.8036 19.656 32.0677 20.2116 33.0061 20.9795C33.9438 21.7468 34.6354 22.8015 34.6354 24.0626C34.6354 25.3237 33.9438 26.3784 33.0061 27.1456C32.0677 27.9135 30.8036 28.4692 29.4009 28.7768C28.8109 28.9062 28.2276 28.5327 28.0983 27.9427C27.9689 27.3526 28.3423 26.7694 28.9323 26.64C30.0879 26.3866 31.0113 25.9514 31.6208 25.4527C32.2311 24.9532 32.4479 24.4655 32.4479 24.0626C32.4479 23.6596 32.2311 23.1719 31.6208 22.6725C31.0113 22.1738 30.0879 21.7385 28.9323 21.4851C28.3423 21.3557 27.9689 20.7725 28.0983 20.1824Z" fill="#0D171C"/>
<path fill-rule="evenodd" clip-rule="evenodd" d="M6.90175 20.1824C6.77236 19.5924 6.18914 19.219 5.5991 19.3484C4.19636 19.656 2.93233 20.2116 1.99388 20.9795C1.05625 21.7468 0.364636 22.8015 0.364636 24.0626C0.364636 25.3237 1.05625 26.3784 1.99388 27.1456C2.93233 27.9135 4.19636 28.4692 5.5991 28.7768C6.18914 28.9062 6.77236 28.5327 6.90175 27.9427C7.03114 27.3526 6.65771 26.7694 6.06767 26.64C4.91214 26.3866 3.98867 25.9514 3.37919 25.4527C2.76889 24.9532 2.55214 24.4655 2.55214 24.0626C2.55214 23.6596 2.76889 23.1719 3.37919 22.6725C3.98867 22.1738 4.91214 21.7385 6.06767 21.4851C6.65771 21.3557 7.03114 20.7725 6.90175 20.1824Z" fill="#0D171C"/>
</svg>
