<svg width="35" height="35" viewBox="0 0 35 35" fill="none" xmlns="http://www.w3.org/2000/svg">
<path d="M5.83337 16.0417H23.3334C26.0832 16.0417 27.4582 16.0417 28.3124 16.896C29.1667 17.7503 29.1667 19.1252 29.1667 21.8751V23.3334C29.1667 27.4582 29.1667 29.5206 27.8853 30.802C26.6039 32.0834 24.5415 32.0834 20.4167 32.0834H14.5834C10.4586 32.0834 8.39619 32.0834 7.11478 30.802C5.83337 29.5206 5.83337 27.4582 5.83337 23.3334V16.0417Z" stroke="#0D171C" stroke-width="2"/>
<path d="M5.83551 16.0412C5.12998 13.4082 4.77721 12.0916 5.08062 10.9593C5.27939 10.2175 5.66991 9.54108 6.21295 8.99804C7.04188 8.16911 8.35842 7.81635 10.9915 7.11082L21.2041 4.37434C22.1859 4.11127 22.6768 3.97974 23.1068 3.95155C24.8726 3.83582 26.5341 4.79514 27.3168 6.38217C27.5074 6.76864 27.6389 7.25954 27.902 8.24133C27.9897 8.5686 28.0335 8.73223 28.0429 8.87556C28.0815 9.46414 27.7617 10.018 27.2327 10.2789C27.1039 10.3424 26.9402 10.3863 26.613 10.4739L5.83551 16.0412Z" stroke="#0D171C" stroke-width="2"/>
<path d="M21.4381 4.28954L20.5081 12.0876" stroke="#0D171C" stroke-width="2" stroke-linecap="round"/>
<path d="M12.282 6.74316L11.3519 14.5413" stroke="#0D171C" stroke-width="2" stroke-linecap="round"/>
</svg>
